<?xml version="1.0" encoding="utf-8"?>
<!-- Generator: Adobe Illustrator 16.0.0, SVG Export Plug-In . SVG Version: 6.00 Build 0)  -->
<!DOCTYPE svg PUBLIC "-//W3C//DTD SVG 1.1//EN" "http://www.w3.org/Graphics/SVG/1.1/DTD/svg11.dtd">
<svg version="1.1" id="Ebene_1" xmlns="http://www.w3.org/2000/svg" xmlns:xlink="http://www.w3.org/1999/xlink" x="0px" y="0px"
	 width="60.09px" height="60.09px" viewBox="0 0 60.09 60.09" enable-background="new 0 0 60.09 60.09" xml:space="preserve">
<g id="apple">
	<path fill="#FFFFFF" d="M41.947,29.901c-0.056-5.492,4.478-8.126,4.68-8.258c-2.546-3.726-6.516-4.236-7.93-4.294
		c-3.372-0.344-6.587,1.988-8.298,1.988c-1.708,0-4.353-1.938-7.151-1.888c-3.682,0.054-7.075,2.141-8.969,5.437
		c-3.823,6.631-0.978,16.46,2.747,21.843c1.822,2.632,3.994,5.591,6.843,5.482c2.746-0.108,3.784-1.776,7.103-1.776
		c3.319,0,4.252,1.776,7.157,1.721c2.953-0.053,4.826-2.681,6.633-5.322c2.089-3.056,2.951-6.016,3.002-6.166
		C47.699,38.639,42.005,36.456,41.947,29.901z"/>
	<path fill="#FFFFFF" d="M36.599,13.787c1.509-1.834,2.534-4.384,2.255-6.922c-2.179,0.089-4.82,1.45-6.385,3.283
		c-1.403,1.626-2.63,4.215-2.301,6.708C32.599,17.045,35.08,15.618,36.599,13.787z"/>
</g>
</svg>
