<?xml version="1.0" standalone="no"?>
<!DOCTYPE svg PUBLIC "-//W3C//DTD SVG 20010904//EN"
 "http://www.w3.org/TR/2001/REC-SVG-20010904/DTD/svg10.dtd">
<svg version="1.0" xmlns="http://www.w3.org/2000/svg"
 width="1166.000000pt" height="1166.000000pt" viewBox="0 0 1166.000000 1166.000000"
 preserveAspectRatio="xMidYMid meet">
<metadata>
Created by potrace 1.11, written by Peter Selinger 2001-2013
</metadata>
<g transform="translate(0.000000,1166.000000) scale(0.100000,-0.100000)"
fill="#000000" stroke="none">
<path d="M5145 11622 c-22 -11 -101 -65 -175 -121 -74 -56 -144 -108 -155
-115 -11 -8 -102 -76 -202 -150 -154 -115 -186 -135 -211 -131 -17 2 -63 6
-104 10 -40 3 -90 8 -110 10 -93 12 -117 14 -178 20 -36 3 -81 8 -100 10 -19
2 -60 7 -90 10 -30 3 -80 9 -110 13 -30 3 -89 7 -132 7 -70 0 -79 -2 -115 -31
-31 -25 -234 -291 -338 -444 -13 -19 -72 -100 -130 -180 -59 -80 -113 -154
-121 -165 -7 -11 -39 -54 -69 -95 -30 -41 -61 -84 -69 -95 -8 -11 -59 -81
-113 -155 -54 -75 -113 -156 -130 -180 -18 -25 -87 -119 -153 -210 l-120 -165
-142 -106 c-79 -59 -285 -211 -458 -339 -173 -128 -352 -260 -397 -294 -45
-34 -128 -95 -185 -137 -407 -302 -495 -370 -511 -398 -23 -39 -28 -97 -17
-187 5 -38 11 -98 15 -134 3 -36 8 -72 10 -80 2 -8 6 -44 10 -80 3 -36 8 -81
10 -100 3 -19 7 -60 10 -90 4 -30 8 -66 10 -80 7 -49 18 -156 19 -182 1 -20
-61 -113 -244 -364 -135 -185 -253 -351 -262 -368 -10 -18 -17 -54 -18 -83 0
-48 27 -113 281 -685 154 -347 296 -665 315 -706 19 -40 34 -75 34 -77 0 -2
13 -32 29 -67 100 -217 180 -409 185 -443 3 -22 8 -60 11 -85 8 -76 15 -133
21 -180 3 -25 7 -58 8 -75 2 -16 6 -52 10 -80 7 -58 16 -143 21 -200 2 -22 6
-58 9 -80 3 -22 8 -62 11 -90 3 -27 10 -81 15 -120 5 -38 11 -97 15 -130 3
-33 7 -71 9 -85 3 -14 7 -52 10 -85 3 -33 10 -94 15 -135 5 -41 12 -102 16
-135 3 -33 10 -94 15 -135 11 -94 19 -157 25 -215 3 -25 7 -66 10 -93 13 -109
26 -145 74 -193 9 -8 197 -94 418 -190 l402 -174 36 -80 c20 -44 43 -93 50
-110 7 -16 24 -55 38 -85 13 -30 61 -138 107 -240 129 -291 136 -304 178 -332
47 -32 72 -37 234 -53 32 -3 74 -7 95 -9 52 -6 139 -15 196 -21 26 -3 66 -7
90 -9 23 -3 71 -8 107 -11 36 -3 76 -8 90 -10 14 -2 54 -7 90 -10 124 -12 259
-26 283 -31 9 -1 53 -6 96 -9 44 -3 88 -8 99 -10 10 -2 55 -6 98 -10 43 -3 90
-8 104 -10 24 -4 66 -9 175 -20 28 -2 91 -9 140 -15 50 -5 119 -12 154 -16 69
-6 36 7 781 -316 443 -192 477 -207 557 -244 28 -13 54 -24 57 -24 3 0 40 -16
82 -35 41 -19 78 -35 82 -35 3 0 24 -9 46 -19 23 -10 57 -26 76 -34 19 -9 87
-38 151 -66 127 -56 189 -69 241 -52 19 6 191 128 383 270 l350 260 45 -5 c25
-2 70 -7 100 -10 30 -4 69 -8 85 -9 17 -2 57 -6 90 -9 33 -4 83 -9 110 -12 28
-3 66 -7 85 -10 19 -2 67 -6 105 -9 39 -3 79 -8 90 -10 11 -2 57 -7 101 -10
69 -6 88 -4 125 12 24 11 51 29 61 39 13 15 276 376 338 464 20 29 147 202
157 215 24 30 672 922 691 951 22 33 118 107 756 579 119 88 227 168 239 177
12 9 87 65 167 123 80 59 159 118 175 130 17 13 95 72 175 130 80 58 160 119
177 136 33 30 65 112 59 146 -2 10 -7 47 -10 83 -4 36 -9 76 -11 90 -2 14 -7
54 -10 90 -3 36 -8 76 -10 90 -3 14 -7 52 -11 85 -3 33 -7 71 -9 85 -1 14 -6
52 -9 85 -4 33 -9 74 -11 90 -2 17 -7 57 -10 90 l-6 60 88 122 c363 501 427
592 435 622 14 49 4 108 -31 182 -40 87 -161 359 -171 384 -4 11 -21 49 -38
85 -35 76 -38 84 -172 385 -106 241 -130 294 -160 360 -10 22 -25 56 -33 75
-9 19 -32 70 -51 113 -20 42 -36 79 -36 81 0 3 -17 42 -39 88 -100 217 -107
237 -116 328 -4 36 -8 76 -10 90 -2 14 -6 50 -10 80 -3 30 -7 71 -10 90 -3 19
-7 56 -10 83 -11 98 -16 144 -25 217 -5 41 -12 100 -15 130 -3 30 -8 69 -10
85 -3 17 -7 57 -10 90 -5 55 -9 93 -20 180 -2 17 -7 57 -10 90 -3 33 -8 71
-10 85 -2 14 -7 53 -10 88 -4 35 -8 71 -10 80 -1 9 -6 49 -10 87 -4 39 -8 81
-10 95 -2 14 -7 52 -10 85 -3 33 -8 76 -10 95 -3 19 -7 58 -10 85 -17 144 -27
174 -73 218 -15 14 -65 42 -112 62 -47 21 -109 48 -138 61 -29 13 -55 24 -57
24 -2 0 -33 13 -67 29 -35 15 -112 50 -173 76 -148 63 -161 69 -225 97 l-55
25 -179 401 c-114 256 -188 410 -205 426 -47 45 -81 54 -271 71 -19 2 -53 6
-75 9 -22 3 -69 8 -105 11 -36 3 -76 8 -90 10 -14 2 -56 7 -95 10 -38 3 -81 7
-95 10 -14 2 -56 7 -95 10 -38 3 -86 8 -105 10 -19 2 -64 7 -100 10 -36 4 -72
8 -80 10 -8 2 -51 6 -95 10 -44 4 -93 8 -110 10 -16 2 -59 6 -95 10 -36 3 -76
8 -90 10 -14 2 -54 7 -90 10 -36 3 -83 8 -105 10 -81 9 -141 16 -190 20 -27 3
-68 7 -90 10 -22 3 -67 7 -100 11 -54 5 -213 66 -430 165 -22 10 -265 115
-540 234 -596 258 -585 254 -610 265 -11 5 -99 44 -195 86 -198 85 -251 96
-315 66z"/>
</g>
</svg>
