<?xml version="1.0" encoding="utf-8"?>
<!-- Generator: Adobe Illustrator 16.0.0, SVG Export Plug-In . SVG Version: 6.00 Build 0)  -->
<!DOCTYPE svg PUBLIC "-//W3C//DTD SVG 1.1//EN" "http://www.w3.org/Graphics/SVG/1.1/DTD/svg11.dtd">
<svg version="1.1" id="Layer_1" xmlns="http://www.w3.org/2000/svg" xmlns:xlink="http://www.w3.org/1999/xlink" x="0px" y="0px"
	 width="147.401px" height="111.4px" viewBox="0 0 147.401 111.4" enable-background="new 0 0 147.401 111.4" xml:space="preserve">
<g>
	<g>
		<path fill="#004587" d="M69.463,0.218h27.911c3.486,0,6.314,2.827,6.314,6.313v27.909c0,3.488-2.828,6.315-6.314,6.315H69.463
			c-3.486,0-6.313-2.827-6.313-6.315V6.532C63.15,3.045,65.977,0.218,69.463,0.218"/>
	</g>
	<g>
		<path d="M43.813,83.908v-2.784c-1.449,2.115-4.345,3.396-7.353,3.396c-6.793,0-10.412-4.455-10.412-13.085V54.67h5.735V71.21
			c0,5.903,2.228,8.019,6.015,8.019c3.842,0,6.015-2.729,6.015-7.461V54.67h5.735v29.238H43.813z M72.793,69.93
			c0-7.352-2.34-10.581-6.573-10.581c-2.728,0-5.122,1.837-6.626,3.732v12.307c1.28,1.726,3.953,3.843,6.85,3.843
			C70.563,79.23,72.793,76.111,72.793,69.93 M78.528,69.762C78.528,79.787,73.07,84.52,67,84.52c-2.951,0-5.736-1.56-7.351-3.341
			v2.729h-5.68V46.261l5.68-2.951v14.145c2.116-1.95,4.566-3.398,7.629-3.398C73.571,54.058,78.528,58.625,78.528,69.762
			 M103.895,83.908V54.67h-5.735v17.098c0,4.732-2.173,7.461-6.016,7.461c-3.785,0-6.014-2.116-6.014-8.019V54.67h-5.736v16.764
			c0,8.63,3.621,13.085,10.414,13.085c3.007,0,5.902-1.281,7.352-3.396v2.784H103.895z M147.401,83.908V67.146
			c0-8.632-3.23-13.088-10.023-13.088c-4.566,0-6.85,1.672-8.967,4.289c-1.559-2.784-4.064-4.289-8.019-4.289
			c-3.007,0-5.513,1.281-6.96,3.397V54.67h-5.737v29.238h5.737V66.812c0-4.734,1.781-7.462,5.623-7.462
			c3.788,0,5.626,2.116,5.626,8.019v16.54h5.735V66.812c0-4.734,1.782-7.462,5.624-7.462c3.786,0,5.625,2.116,5.625,8.019v16.54
			H147.401z M23.166,59.015c-2.728-3.23-6.069-4.958-10.357-4.958C5.682,54.058,0,59.684,0,69.373
			C0,78.506,5.514,84.52,12.642,84.52c5.29,0,8.187-2.561,10.47-5.457l-3.676-3.62c-2.283,2.395-3.898,3.62-6.627,3.62
			c-4.566,0-7.017-4.121-7.017-9.856c0-5.96,2.674-9.69,6.85-9.69c2.617,0,4.733,1.114,7.128,3.564L23.166,59.015z"/>
		<path fill-rule="evenodd" clip-rule="evenodd" d="M18.379,32.3c-1.337,1.838-4.01,3.731-7.072,3.731
			c-3.787,0-5.625-1.949-5.625-4.845c0-2.673,2.338-4.344,6.014-4.344c3.12,0,5.125,0.5,6.684,1.281V32.3z M24.003,40.597V20.55
			c0-6.626-4.454-9.802-10.97-9.802c-4.121,0-7.24,0.892-10.025,2.618l2.229,4.343c2.283-1.28,4.622-1.837,7.629-1.837
			c3.564,0,5.514,1.782,5.514,4.957V23c-1.615-0.724-3.787-1.115-6.516-1.115c-6.627,0-11.639,2.952-11.639,9.468
			c0,7.183,5.401,9.856,10.135,9.856c3.175,0,6.014-1.503,8.02-3.508v2.895H24.003z M46.479,32.188
			c-1.504,1.893-3.899,3.731-6.627,3.731c-4.234,0-6.571-3.23-6.571-10.581c0-6.182,2.228-9.301,6.349-9.301
			c2.896,0,5.568,2.117,6.85,3.843V32.188z M52.104,40.597V0l-5.682,2.951v11.138c-1.615-1.782-4.398-3.342-7.351-3.342
			c-6.069,0-11.528,4.735-11.528,14.757c0,11.139,4.957,15.705,11.248,15.705c3.064,0,5.516-1.447,7.631-3.397v2.785H52.104z"/>
	</g>
</g>
<g>
	<path fill="#6A6D71" d="M3.614,100.666h1.847v1.103H3.614v7.24c0,0.853,0.105,1.352,0.897,1.415c0.316,0,0.633-0.021,0.949-0.063
		v1.124c-0.334,0-0.651,0.042-0.985,0.042c-1.477,0-1.987-0.583-1.97-2.413v-7.344H0.924v-1.103h1.583v-3.224h1.108V100.666z"/>
	<path fill="#6A6D71" d="M9.278,96.547h1.107v5.971h0.036c0.404-1.29,1.618-2.164,2.901-2.164c2.55,0,3.324,1.582,3.324,4.141v6.906
		h-1.108v-6.699c0-1.852-0.51-3.246-2.303-3.246c-1.759,0-2.814,1.582-2.85,3.683v6.262H9.278V96.547z"/>
	<path fill="#6A6D71" d="M21.169,96.547h1.108v2.101h-1.108V96.547z M21.169,100.666h1.108V111.4h-1.108V100.666z"/>
	<path fill="#6A6D71" d="M26.777,100.666h1.107v1.852h0.035c0.405-1.29,1.618-2.164,2.902-2.164c2.55,0,3.323,1.582,3.323,4.141
		v6.906h-1.108v-6.699c0-1.852-0.51-3.246-2.304-3.246c-1.759,0-2.814,1.582-2.849,3.683v6.262h-1.107V100.666z"/>
	<path fill="#6A6D71" d="M38.655,96.547h1.108v9.32l5.029-5.201h1.479l-3.869,3.974l4.133,6.761h-1.39l-3.588-5.846l-1.793,1.769
		v4.077h-1.108V96.547z"/>
	<path fill="#6A6D71" d="M50.351,111.4v-2.205h1.477v2.205H50.351z"/>
	<path fill="#6A6D71" d="M56.63,96.547h1.108v2.101H56.63V96.547z M56.63,100.666h1.108V111.4H56.63V100.666z"/>
	<path fill="#6A6D71" d="M62.238,100.666h1.107v1.852h0.036c0.404-1.29,1.618-2.164,2.901-2.164c2.55,0,3.324,1.582,3.324,4.141
		v6.906h-1.108v-6.699c0-1.852-0.51-3.246-2.304-3.246c-1.759,0-2.813,1.582-2.85,3.683v6.262h-1.107V100.666z"/>
	<path fill="#6A6D71" d="M79.498,103.807c-0.053-1.623-1.107-2.351-2.374-2.351c-0.984,0-2.146,0.458-2.146,1.852
		c0,1.165,1.126,1.581,1.883,1.81l1.477,0.395c1.266,0.229,2.586,1.103,2.586,2.975c0,2.331-1.953,3.225-3.641,3.225
		c-2.11,0-3.553-1.165-3.728-3.786h1.107c0.089,1.768,1.196,2.684,2.674,2.684c1.037,0,2.479-0.541,2.479-2.039
		c0-1.248-0.984-1.665-1.987-1.956l-1.424-0.375c-1.442-0.458-2.532-1.04-2.532-2.871c0-2.184,1.812-3.017,3.412-3.017
		c1.811,0,3.253,1.124,3.324,3.454H79.498z"/>
	<path fill="#6A6D71" d="M92.273,111.4h-1.02v-1.935h-0.035c-0.58,1.436-1.776,2.247-3.13,2.247c-2.287,0-3.184-1.581-3.184-4.077
		v-6.97h1.108v6.99c0.052,1.935,0.667,2.955,2.426,2.955c1.899,0,2.726-2.122,2.726-4.306v-5.638h1.108V111.4z"/>
	<path fill="#6A6D71" d="M96.798,100.666h1.02v2.518h0.035c0.563-1.728,1.793-2.746,3.43-2.663v1.311
		c-2.005-0.125-3.377,1.623-3.377,3.849v5.721h-1.107V100.666z"/>
	<path fill="#6A6D71" d="M104.585,103.953c0.105-2.517,1.6-3.599,3.676-3.599c1.6,0,3.341,0.583,3.341,3.454v5.7
		c0,0.499,0.211,0.791,0.65,0.791c0.123,0,0.265-0.042,0.353-0.083v1.103c-0.247,0.063-0.422,0.083-0.721,0.083
		c-1.126,0-1.302-0.749-1.302-1.873h-0.036c-0.773,1.394-1.564,2.185-3.307,2.185c-1.67,0-3.042-0.978-3.042-3.141
		c0-3.017,2.479-3.121,4.872-3.453c0.914-0.125,1.424-0.271,1.424-1.457c0-1.768-1.072-2.206-2.373-2.206
		c-1.373,0-2.392,0.75-2.428,2.497H104.585z M110.493,105.534h-0.034c-0.141,0.313-0.634,0.417-0.933,0.479
		c-1.882,0.395-4.221,0.375-4.221,2.476c0,1.311,0.985,2.122,2.022,2.122c1.688,0,3.184-1.269,3.165-3.37V105.534z"/>
	<path fill="#6A6D71" d="M116.296,100.666h1.108v1.852h0.035c0.404-1.29,1.617-2.164,2.901-2.164c2.55,0,3.324,1.582,3.324,4.141
		v6.906h-1.108v-6.699c0-1.852-0.51-3.246-2.304-3.246c-1.759,0-2.813,1.582-2.849,3.683v6.262h-1.108V100.666z"/>
	<path fill="#6A6D71" d="M134.563,104.036c-0.299-1.602-1.126-2.58-2.568-2.58c-2.128,0-3.183,2.289-3.183,4.577
		c0,2.289,1.055,4.577,3.183,4.577c1.372,0,2.497-1.269,2.639-3.058h1.107c-0.299,2.58-1.723,4.161-3.746,4.161
		c-2.777,0-4.291-2.601-4.291-5.68c0-3.079,1.514-5.679,4.291-5.679c1.935,0,3.43,1.228,3.676,3.683H134.563z"/>
	<path fill="#6A6D71" d="M140.415,106.387c0.018,1.914,0.861,4.223,2.989,4.223c1.617,0,2.498-1.124,2.849-2.747h1.109
		c-0.477,2.435-1.672,3.849-3.958,3.849c-2.885,0-4.098-2.621-4.098-5.68c0-2.829,1.213-5.679,4.098-5.679
		c2.92,0,4.081,3.017,3.992,6.033H140.415z M146.288,105.284c-0.052-1.976-1.09-3.828-2.884-3.828c-1.812,0-2.813,1.873-2.989,3.828
		H146.288z"/>
</g>
</svg>
