<?xml version="1.0" encoding="utf-8"?>
<!-- Generator: Adobe Illustrator 16.0.0, SVG Export Plug-In . SVG Version: 6.00 Build 0)  -->
<!DOCTYPE svg PUBLIC "-//W3C//DTD SVG 1.1//EN" "http://www.w3.org/Graphics/SVG/1.1/DTD/svg11.dtd">
<svg version="1.1" id="Ebene_1" xmlns="http://www.w3.org/2000/svg" xmlns:xlink="http://www.w3.org/1999/xlink" x="0px" y="0px"
	 width="428.496px" height="83.363px" viewBox="83.363 379.264 428.496 83.363"
	 enable-background="new 83.363 379.264 428.496 83.363" xml:space="preserve">
<g>
	<path fill="#1E9AE2" d="M83.363,379.264v83.363h83.363v-83.363H83.363z M152.636,448.537H97.452v-55.184h55.184V448.537z"/>
	<rect x="103.323" y="399.224" width="43.442" height="12.916"/>
	<rect x="103.323" y="414.487" width="43.442" height="12.915"/>
	<rect x="103.323" y="429.751" width="43.442" height="12.914"/>
	<g>
		<path d="M218.621,423.705h-17.26v18.961h-6.574v-43.5h6.574v18.61h17.26v-18.61h6.575v43.5h-6.575V423.705z"/>
		<path d="M236.996,406.621c2.055-3.757,6.811-7.808,13.62-7.808c6.869,0,11.565,4.051,13.62,7.808
			c1.409,2.583,1.878,3.875,1.878,14.266c0,10.449-0.469,11.742-1.878,14.266c-2.055,3.758-6.811,7.809-13.62,7.809
			c-6.868,0-11.565-4.051-13.62-7.809c-1.408-2.582-1.878-3.875-1.878-14.266S235.588,409.204,236.996,406.621z M243.924,433.273
			c1.351,1.703,3.581,3.17,6.751,3.17c3.111,0,5.401-1.467,6.751-3.17c1.703-2.172,2.173-3.404,2.173-12.328
			s-0.47-10.156-2.173-12.329c-1.35-1.703-3.581-3.17-6.751-3.17c-3.111,0-5.4,1.467-6.751,3.17
			c-1.702,2.172-2.172,3.405-2.172,12.329S242.222,431.042,243.924,433.273z"/>
		<path d="M276.623,432.099c3.287,2.643,7.69,4.344,12.328,4.344c5.401,0,8.63-2.465,8.63-6.047c0-3.053-1.761-5.4-5.694-5.869
			c-1.938-0.236-3.464-0.471-5.753-0.822c-7.515-1.057-11.565-5.93-11.565-12.211c0-7.456,5.166-12.68,14.207-12.68
			c5.4,0,10.156,1.878,14.089,4.52l-3.64,5.46c-3.17-1.996-6.927-3.346-10.743-3.346c-4.051,0-7.279,2.055-7.279,6.223
			c0,2.466,1.761,4.873,6.164,5.577c1.174,0.176,2.818,0.411,4.873,0.646c8.101,0.998,11.917,6.576,11.917,12.503
			c0,7.984-5.93,12.623-15.264,12.623c-6.398,0-12.034-1.938-16.613-5.988L276.623,432.099z"/>
		<path d="M320.711,405.036h-11.917v-5.871h30.409v5.871h-11.917v37.63h-6.575V405.036z"/>
		<path d="M346.073,399.165h15.792c3.405,0,6.398,0.411,9.804,3.053c2.642,1.996,4.696,5.694,4.696,10.391
			c0,6.164-4.696,13.092-13.619,13.092h-10.039v16.965h-6.575v-43.5H346.073z M352.706,419.478h9.804
			c4.873,0,7.279-3.581,7.279-7.045c0-2.935-1.174-4.696-2.817-5.812c-1.468-0.998-2.818-1.233-4.696-1.233h-9.511v14.09H352.706z"
			/>
		<path d="M384.936,406.621c2.055-3.757,6.81-7.808,13.62-7.808c6.868,0,11.565,4.051,13.62,7.808
			c1.408,2.583,1.878,3.875,1.878,14.266c0,10.449-0.47,11.742-1.878,14.266c-2.055,3.758-6.811,7.809-13.62,7.809
			c-6.869,0-11.565-4.051-13.62-7.809c-1.409-2.582-1.879-3.875-1.879-14.266S383.527,409.204,384.936,406.621z M391.864,433.273
			c1.35,1.703,3.581,3.17,6.751,3.17c3.111,0,5.401-1.467,6.692-3.17c1.702-2.172,2.172-3.404,2.172-12.328
			s-0.47-10.156-2.172-12.329c-1.351-1.703-3.581-3.17-6.692-3.17s-5.401,1.467-6.751,3.17c-1.703,2.172-2.173,3.405-2.173,12.329
			S390.16,431.042,391.864,433.273z"/>
		<path d="M423.976,399.165h6.575v43.5h-6.575V399.165z"/>
		<path d="M441.998,399.165h6.223l19.667,30.879h0.117v-30.879h6.575v43.5h-6.223l-19.667-30.878h-0.117v30.878h-6.575V399.165z"/>
		<path d="M493.366,405.036h-11.918v-5.871h30.41v5.871h-11.917v37.63h-6.575V405.036z"/>
	</g>
</g>
</svg>
