<?xml version="1.0" encoding="utf-8"?>
<!-- Generator: Adobe Illustrator 16.0.0, SVG Export Plug-In . SVG Version: 6.00 Build 0)  -->
<!DOCTYPE svg PUBLIC "-//W3C//DTD SVG 1.1//EN" "http://www.w3.org/Graphics/SVG/1.1/DTD/svg11.dtd">
<svg version="1.1" id="Ebene_1" xmlns="http://www.w3.org/2000/svg" xmlns:xlink="http://www.w3.org/1999/xlink" x="0px" y="0px"
	 width="329.934px" height="81.118px" viewBox="0 0 329.934 81.118" enable-background="new 0 0 329.934 81.118"
	 xml:space="preserve">
<g>
	<g>
		<defs>
			<rect id="SVGID_1_" x="0" width="329.109" height="35.384"/>
		</defs>
		<clipPath id="SVGID_2_">
			<use xlink:href="#SVGID_1_"  overflow="visible"/>
		</clipPath>
		<g clip-path="url(#SVGID_2_)">
			<defs>
				<rect id="SVGID_3_" x="-7.083" y="-7.083" width="343.276" height="49.55"/>
			</defs>
			<clipPath id="SVGID_4_">
				<use xlink:href="#SVGID_3_"  overflow="visible"/>
			</clipPath>
			<path clip-path="url(#SVGID_4_)" fill="#A3B1C8" d="M0,34.92L5.313,9.924h5.657L5.656,34.92H0z M12.756,2.829
				C12.592,3.603,12.158,4.26,11.458,4.8c-0.703,0.541-1.503,0.812-2.399,0.812c-0.865,0-1.542-0.271-2.031-0.812
				C6.54,4.26,6.378,3.603,6.543,2.829c0.17-0.804,0.613-1.477,1.332-2.018C8.593,0.271,9.385,0,10.25,0
				c0.897,0,1.581,0.271,2.055,0.812C12.776,1.353,12.928,2.025,12.756,2.829"/>
			<path clip-path="url(#SVGID_4_)" d="M39.278,34.92l3.766-17.715c0.105-0.494,0.142-0.997,0.113-1.507
				c-0.031-0.509-0.176-0.958-0.434-1.345c-0.257-0.387-0.647-0.703-1.166-0.951c-0.519-0.247-1.228-0.371-2.125-0.371
				c-0.927,0-1.689,0.063-2.287,0.186c-0.599,0.124-1.183,0.294-1.756,0.51L30.885,34.92h-5.658l5.028-23.651
				c1.293-0.556,2.777-0.995,4.455-1.321c1.675-0.324,3.581-0.486,5.714-0.486c1.855,0,3.372,0.208,4.551,0.625
				c1.179,0.418,2.078,0.982,2.701,1.693c0.622,0.711,1.004,1.523,1.153,2.435c0.145,0.912,0.109,1.878-0.108,2.898L44.936,34.92
				H39.278z"/>
			<path clip-path="url(#SVGID_4_)" d="M78.372,34.92l3.766-17.715c0.105-0.494,0.142-0.997,0.113-1.507
				c-0.031-0.509-0.176-0.958-0.434-1.345c-0.257-0.387-0.647-0.703-1.166-0.951c-0.519-0.247-1.228-0.371-2.125-0.371
				c-0.927,0-1.689,0.063-2.287,0.186c-0.599,0.124-1.183,0.294-1.756,0.51L69.979,34.92h-5.658l5.028-23.651
				c1.293-0.556,2.777-0.995,4.455-1.321c1.675-0.324,3.581-0.486,5.714-0.486c1.855,0,3.372,0.208,4.551,0.625
				c1.179,0.418,2.078,0.982,2.701,1.693c0.622,0.711,1.004,1.523,1.153,2.435c0.145,0.912,0.109,1.878-0.108,2.898L84.03,34.92
				H78.372z"/>
			<path clip-path="url(#SVGID_4_)" d="M125.914,22.445c-0.395,1.854-0.976,3.571-1.744,5.147c-0.768,1.578-1.701,2.945-2.796,4.104
				c-1.098,1.159-2.364,2.063-3.801,2.713c-1.436,0.649-3.035,0.974-4.797,0.974c-1.762,0-3.223-0.324-4.385-0.974
				c-1.16-0.649-2.043-1.554-2.645-2.713c-0.605-1.159-0.955-2.526-1.052-4.104c-0.1-1.576,0.05-3.293,0.444-5.147
				s0.976-3.578,1.749-5.171c0.77-1.592,1.703-2.968,2.801-4.127c1.097-1.159,2.363-2.063,3.8-2.714
				c1.436-0.648,3.036-0.972,4.798-0.972c1.762,0,3.224,0.323,4.383,0.972c1.162,0.651,2.051,1.555,2.671,2.714
				c0.619,1.159,0.967,2.535,1.047,4.127C126.465,18.867,126.307,20.591,125.914,22.445 M120.312,22.399
				c0.257-1.206,0.44-2.365,0.554-3.479c0.113-1.112,0.092-2.11-0.06-2.991c-0.153-0.881-0.483-1.584-0.989-2.11
				c-0.508-0.523-1.27-0.788-2.291-0.788c-0.988,0-1.856,0.265-2.602,0.788c-0.746,0.526-1.383,1.229-1.909,2.11
				c-0.528,0.881-0.972,1.879-1.331,2.991c-0.361,1.113-0.668,2.272-0.925,3.479c-0.25,1.175-0.423,2.313-0.515,3.408
				c-0.095,1.098-0.063,2.071,0.097,2.922c0.159,0.85,0.493,1.53,1.004,2.04c0.51,0.511,1.259,0.766,2.249,0.766
				c1.02,0,1.893-0.255,2.62-0.766c0.727-0.51,1.35-1.19,1.871-2.04c0.521-0.851,0.96-1.824,1.317-2.922
				C119.758,24.712,120.062,23.574,120.312,22.399"/>
			<path clip-path="url(#SVGID_4_)" d="M152.665,34.92h-5.381l-2.848-24.996h6.029l0.975,16.14c0.057,0.896,0.014,2.039-0.127,3.431
				h0.092c0.475-1.36,0.934-2.504,1.379-3.431l7.93-16.14h5.287L152.665,34.92z"/>
			<path clip-path="url(#SVGID_4_)" d="M191.257,34.873c-1.617,0.342-3.4,0.512-5.349,0.512c-3.431,0-5.849-0.665-7.252-1.995
				c-1.401-1.328-1.845-3.2-1.334-5.61c0.349-1.64,1.01-3.008,1.987-4.104c0.974-1.098,2.17-1.996,3.584-2.691
				c1.416-0.695,3.006-1.228,4.769-1.599c1.765-0.372,3.623-0.65,5.58-0.835l0.287-1.346c0.17-0.804,0.19-1.477,0.058-2.017
				c-0.134-0.541-0.384-0.967-0.75-1.275c-0.367-0.31-0.839-0.525-1.414-0.649c-0.576-0.124-1.236-0.186-1.979-0.186
				c-1.205,0-2.392,0.162-3.558,0.486s-2.176,0.672-3.027,1.044l-0.608-3.247c0.89-0.401,2.113-0.818,3.675-1.251
				c1.561-0.433,3.33-0.649,5.309-0.649c1.298,0,2.474,0.146,3.523,0.44c1.051,0.294,1.922,0.781,2.61,1.46
				c0.692,0.682,1.159,1.569,1.405,2.667s0.197,2.45-0.145,4.058l-3.291,15.489C194.234,34.102,192.875,34.534,191.257,34.873
				 M192.673,21.239c-1.363,0.156-2.605,0.364-3.729,0.627c-1.123,0.264-2.103,0.626-2.945,1.09
				c-0.84,0.463-1.541,1.066-2.099,1.809c-0.559,0.743-0.961,1.685-1.204,2.829c-0.349,1.638-0.144,2.82,0.614,3.547
				s1.972,1.09,3.64,1.09c0.651,0,1.282-0.062,1.896-0.186c0.612-0.122,1.16-0.293,1.639-0.51L192.673,21.239z"/>
			<path clip-path="url(#SVGID_4_)" d="M224.151,35.036c-0.521,0.107-1.117,0.162-1.798,0.162c-1.237,0-2.247-0.193-3.03-0.58
				c-0.783-0.386-1.39-0.889-1.813-1.506c-0.425-0.618-0.673-1.338-0.748-2.157c-0.074-0.818-0.017-1.661,0.166-2.527l3.164-14.887
				h-2.781l0.771-3.617h2.781l1.174-5.519l5.992-1.576l-1.509,7.095h4.08l-0.769,3.617h-4.08l-3.106,14.608
				c-0.211,0.991-0.168,1.777,0.123,2.366c0.293,0.587,0.935,0.88,1.925,0.88c0.245,0,0.475-0.023,0.688-0.069
				c0.208-0.046,0.445-0.1,0.707-0.162l-0.75,3.524C225.063,34.813,224.667,34.928,224.151,35.036"/>
			<path clip-path="url(#SVGID_4_)" d="M243.559,34.92l5.313-24.996h5.658l-5.315,24.996H243.559z M256.315,2.829
				c-0.164,0.773-0.599,1.431-1.3,1.971c-0.702,0.541-1.504,0.812-2.399,0.812c-0.865,0-1.541-0.271-2.03-0.812
				c-0.488-0.54-0.647-1.197-0.484-1.971c0.171-0.804,0.613-1.477,1.332-2.018c0.72-0.54,1.511-0.812,2.375-0.812
				c0.897,0,1.582,0.271,2.056,0.812C256.335,1.353,256.487,2.025,256.315,2.829"/>
			<path clip-path="url(#SVGID_4_)" d="M284.599,27.732c-0.218,1.021-0.634,1.994-1.248,2.922c-0.615,0.928-1.384,1.738-2.304,2.434
				c-0.922,0.696-1.972,1.247-3.155,1.647c-1.185,0.4-2.455,0.603-3.814,0.603c-1.485,0-2.786-0.169-3.903-0.511
				c-1.118-0.34-1.993-0.772-2.623-1.298l2.252-3.617c0.388,0.37,0.957,0.703,1.714,0.997c0.756,0.294,1.646,0.44,2.666,0.44
				c1.174,0,2.182-0.332,3.018-0.997c0.837-0.665,1.363-1.508,1.58-2.527c0.229-1.082,0.123-1.917-0.325-2.505
				c-0.449-0.587-1.267-1.128-2.461-1.623c-1.076-0.463-1.927-0.966-2.554-1.508c-0.629-0.539-1.086-1.112-1.375-1.715
				c-0.289-0.604-0.444-1.221-0.463-1.855c-0.022-0.633,0.039-1.275,0.176-1.925c0.211-0.988,0.595-1.924,1.154-2.806
				c0.557-0.881,1.254-1.646,2.088-2.295s1.776-1.166,2.834-1.554c1.057-0.387,2.187-0.578,3.392-0.578
				c1.391,0,2.586,0.161,3.582,0.485c0.999,0.325,1.842,0.75,2.536,1.275l-2.092,3.293c-0.306-0.309-0.772-0.618-1.403-0.928
				c-0.628-0.309-1.392-0.464-2.289-0.464c-1.175,0-2.132,0.324-2.873,0.975c-0.74,0.648-1.207,1.422-1.396,2.319
				c-0.22,1.019-0.041,1.823,0.528,2.41c0.572,0.588,1.353,1.098,2.343,1.53c1.102,0.495,1.985,1.021,2.655,1.576
				c0.67,0.558,1.155,1.145,1.457,1.763c0.302,0.619,0.467,1.26,0.496,1.925C284.819,26.287,284.754,26.99,284.599,27.732"/>
			<polygon clip-path="url(#SVGID_4_)" fill="#A3B1C8" points="329.109,19.84 314.05,34.901 298.996,19.84 314.05,4.786 			"/>
		</g>
	</g>
</g>
</svg>
