<?xml version="1.0" encoding="utf-8"?>
<!-- Generator: Adobe Illustrator 16.0.0, SVG Export Plug-In . SVG Version: 6.00 Build 0)  -->
<!DOCTYPE svg PUBLIC "-//W3C//DTD SVG 1.1//EN" "http://www.w3.org/Graphics/SVG/1.1/DTD/svg11.dtd">
<svg version="1.1" id="Ebene_1" xmlns="http://www.w3.org/2000/svg" xmlns:xlink="http://www.w3.org/1999/xlink" x="0px" y="0px"
	 width="60.09px" height="60.09px" viewBox="0 0 60.09 60.09" enable-background="new 0 0 60.09 60.09" xml:space="preserve">
<g id="android">
	<path fill="#FFFFFF" d="M35.665,11.769l0.479-0.718l0.471-0.708l1.061-1.589c0.128-0.196,0.077-0.458-0.117-0.589
		c-0.198-0.13-0.46-0.078-0.592,0.118l-1.136,1.705l-0.478,0.716l-0.484,0.726c-1.536-0.596-3.248-0.93-5.056-0.93
		c-1.807,0-3.519,0.334-5.055,0.93l-0.482-0.726l-0.478-0.716l-1.137-1.706c-0.13-0.195-0.394-0.247-0.59-0.118
		c-0.195,0.13-0.247,0.394-0.118,0.589l1.059,1.589l0.472,0.708l0.479,0.718c-3.606,1.68-6.046,4.861-6.046,8.504h23.792
		C41.711,16.63,39.272,13.448,35.665,11.769z M24.716,16.874c-0.705,0-1.275-0.571-1.275-1.275c0-0.705,0.57-1.274,1.275-1.274
		c0.704,0,1.274,0.569,1.274,1.274C25.991,16.302,25.42,16.874,24.716,16.874z M34.911,16.874c-0.703,0-1.273-0.571-1.273-1.275
		c0-0.705,0.57-1.274,1.273-1.274c0.706,0,1.276,0.569,1.276,1.274C36.188,16.302,35.617,16.874,34.911,16.874z"/>
	<path fill="#FFFFFF" d="M18.102,21.972h-0.183v2.12v1.73v14.845c0,1.484,1.206,2.692,2.69,2.692h1.942
		c-0.065,0.224-0.102,0.461-0.102,0.707v0.143v0.849v4.393c0,1.406,1.142,2.548,2.55,2.548s2.55-1.142,2.55-2.548v-4.393v-0.849
		v-0.143c0-0.245-0.038-0.483-0.101-0.707h4.732c-0.063,0.224-0.099,0.461-0.099,0.707v0.143v0.849v4.393
		c0,1.406,1.142,2.548,2.547,2.548c1.407,0,2.55-1.142,2.55-2.548v-4.393v-0.849v-0.143c0-0.245-0.036-0.483-0.101-0.707h1.942
		c1.482,0,2.69-1.208,2.69-2.692V25.822v-1.73v-2.12h-0.184H18.102z"/>
	<path fill="#FFFFFF" d="M13.669,21.972c-1.408,0-2.549,1.141-2.549,2.55v10.905c0,1.406,1.141,2.548,2.549,2.548
		c1.406,0,2.549-1.142,2.549-2.548V24.521C16.218,23.112,15.076,21.972,13.669,21.972z"/>
	<path fill="#FFFFFF" d="M45.962,21.972c-1.409,0-2.55,1.141-2.55,2.55v10.905c0,1.406,1.141,2.548,2.55,2.548
		c1.406,0,2.546-1.142,2.546-2.548V24.521C48.508,23.112,47.368,21.972,45.962,21.972z"/>
</g>
</svg>
