<?xml version="1.0" encoding="utf-8"?>
<!-- Generator: Adobe Illustrator 16.0.0, SVG Export Plug-In . SVG Version: 6.00 Build 0)  -->
<!DOCTYPE svg PUBLIC "-//W3C//DTD SVG 1.1//EN" "http://www.w3.org/Graphics/SVG/1.1/DTD/svg11.dtd">
<svg version="1.1" id="Ebene_1" xmlns="http://www.w3.org/2000/svg" xmlns:xlink="http://www.w3.org/1999/xlink" x="0px" y="0px"
	 width="60.09px" height="60.09px" viewBox="0 0 60.09 60.09" enable-background="new 0 0 60.09 60.09" xml:space="preserve">
<g id="google">
	<path fill="#FFFFFF" d="M22.702,27.654c-0.007,1.793,0,3.587,0.008,5.38c3.007,0.098,6.021,0.053,9.027,0.098
		c-1.326,6.67-10.399,8.832-15.198,4.477c-4.936-3.82-4.703-12.2,0.429-15.749c3.587-2.864,8.688-2.155,12.275,0.324
		c1.409-1.304,2.728-2.698,4.001-4.145c-2.985-2.381-6.647-4.077-10.542-3.896c-8.13-0.271-15.606,6.85-15.741,14.98
		C6.44,35.77,10.811,42.288,16.982,44.64c6.149,2.365,14.031,0.753,17.957-4.771c2.592-3.488,3.15-7.979,2.848-12.199
		C32.754,27.631,27.728,27.639,22.702,27.654z"/>
	<path fill="#FFFFFF" d="M52.105,27.631c-0.016-1.5-0.023-3.007-0.031-4.506c-1.5,0-2.99,0-4.482,0
		c-0.016,1.5-0.031,2.999-0.039,4.506c-1.506,0.007-3.006,0.015-4.506,0.03c0,1.5,0,2.991,0,4.484
		c1.5,0.015,3.008,0.029,4.506,0.045c0.016,1.5,0.016,2.999,0.031,4.498c1.5,0,2.992,0,4.49,0c0.008-1.499,0.016-2.998,0.031-4.506
		c1.506-0.016,3.006-0.022,4.506-0.037c0-1.493,0-2.992,0-4.484C55.111,27.646,53.604,27.646,52.105,27.631z"/>
</g>
</svg>
