<?xml version="1.0" encoding="utf-8"?>
<!-- Generator: Adobe Illustrator 16.0.0, SVG Export Plug-In . SVG Version: 6.00 Build 0)  -->
<!DOCTYPE svg PUBLIC "-//W3C//DTD SVG 1.1//EN" "http://www.w3.org/Graphics/SVG/1.1/DTD/svg11.dtd">
<svg version="1.1" id="Ebene_1" xmlns="http://www.w3.org/2000/svg" xmlns:xlink="http://www.w3.org/1999/xlink" x="0px" y="0px"
	 width="60.09px" height="60.09px" viewBox="0 0 60.09 60.09" enable-background="new 0 0 60.09 60.09" xml:space="preserve">
<g id="instagram">
	<path fill="#FFFFFF" d="M29.787,18.885c-6.031,0-11.028,4.911-11.028,11.029c0,6.117,4.911,11.027,11.028,11.027
		c6.118,0,11.03-4.996,11.03-11.027C40.816,23.882,35.818,18.885,29.787,18.885z M29.787,36.979c-3.877,0-7.064-3.188-7.064-7.064
		c0-3.878,3.188-7.066,7.064-7.066c3.877,0,7.065,3.188,7.065,7.066C36.852,33.791,33.664,36.979,29.787,36.979z"/>
	<circle fill="#FFFFFF" cx="41.246" cy="18.626" r="2.499"/>
	<path fill="#FFFFFF" d="M47.709,12.165c-2.24-2.326-5.43-3.533-9.047-3.533h-17.75c-7.496,0-12.494,4.998-12.494,12.493v17.662
		c0,3.706,1.206,6.893,3.619,9.221c2.326,2.239,5.428,3.36,8.96,3.36h17.578c3.703,0,6.805-1.207,9.047-3.36
		c2.326-2.24,3.531-5.429,3.531-9.133v-17.75C51.154,17.507,49.949,14.405,47.709,12.165z M47.191,38.875
		c0,2.671-0.775,4.824-2.326,6.288c-1.551,1.466-3.705,2.24-6.289,2.24H20.999c-2.585,0-4.739-0.774-6.29-2.24
		c-1.551-1.55-2.327-3.703-2.327-6.376V21.125c0-2.585,0.775-4.739,2.327-6.29c1.464-1.465,3.705-2.24,6.29-2.24h17.75
		c2.584,0,4.738,0.775,6.289,2.327c1.465,1.551,2.326,3.705,2.326,6.203v17.75H47.191z"/>
</g>
</svg>
