<?xml version="1.0" encoding="utf-8"?>
<!-- Generator: Adobe Illustrator 16.0.0, SVG Export Plug-In . SVG Version: 6.00 Build 0)  -->
<!DOCTYPE svg PUBLIC "-//W3C//DTD SVG 1.1//EN" "http://www.w3.org/Graphics/SVG/1.1/DTD/svg11.dtd">
<svg version="1.1" id="Ebene_1" xmlns="http://www.w3.org/2000/svg" xmlns:xlink="http://www.w3.org/1999/xlink" x="0px" y="0px"
	 width="60.09px" height="60.09px" viewBox="0 0 60.09 60.09" enable-background="new 0 0 60.09 60.09" xml:space="preserve">
<path id="pinterest" fill="#FFFFFF" d="M32.262,5.815c-13.585,0-20.436,9.74-20.436,17.864c0,4.918,1.861,9.293,5.854,10.922
	c0.655,0.27,1.242,0.01,1.433-0.715c0.132-0.5,0.444-1.766,0.584-2.295c0.19-0.717,0.116-0.967-0.412-1.594
	c-1.151-1.357-1.889-3.115-1.889-5.607c0-7.226,5.407-13.695,14.079-13.695c7.68,0,11.898,4.692,11.898,10.957
	c0,8.246-3.648,15.206-9.064,15.206c-2.992,0-5.23-2.473-4.514-5.508c0.859-3.624,2.524-7.532,2.524-10.149
	c0-2.34-1.258-4.292-3.856-4.292c-3.058,0-5.515,3.164-5.515,7.401c0,2.699,0.912,4.525,0.912,4.525s-3.13,13.26-3.679,15.583
	c-1.092,4.625-0.164,10.293-0.085,10.863c0.046,0.342,0.482,0.424,0.681,0.166c0.28-0.367,3.925-4.863,5.161-9.357
	c0.352-1.271,2.012-7.859,2.012-7.859c0.994,1.896,3.898,3.563,6.986,3.563c9.191,0,15.428-8.379,15.428-19.596
	C50.365,13.714,43.18,5.815,32.262,5.815z"/>
</svg>
