<?xml version="1.0" encoding="utf-8"?>
<!-- Generator: Adobe Illustrator 16.0.0, SVG Export Plug-In . SVG Version: 6.00 Build 0)  -->
<!DOCTYPE svg PUBLIC "-//W3C//DTD SVG 1.1//EN" "http://www.w3.org/Graphics/SVG/1.1/DTD/svg11.dtd">
<svg version="1.1" id="Ebene_1" xmlns="http://www.w3.org/2000/svg" xmlns:xlink="http://www.w3.org/1999/xlink" x="0px" y="0px"
	 width="60.09px" height="60.09px" viewBox="0 0 60.09 60.09" enable-background="new 0 0 60.09 60.09" xml:space="preserve">
<path id="snapchat" fill="#FFFFFF" d="M31.408,52.684c-0.127,0-0.254-0.004-0.379-0.01l0,0c-0.081,0.006-0.165,0.01-0.249,0.01
	c-2.944,0-4.834-1.336-6.661-2.628c-1.262-0.892-2.452-1.733-3.855-1.967c-0.685-0.113-1.366-0.171-2.024-0.171
	c-1.187,0-2.122,0.183-2.806,0.316c-0.415,0.081-0.773,0.151-1.046,0.151c-0.284,0-0.592-0.062-0.727-0.52
	c-0.116-0.396-0.2-0.78-0.281-1.151c-0.209-0.956-0.356-1.544-0.758-1.605c-4.669-0.722-6.006-1.705-6.304-2.403
	c-0.042-0.1-0.066-0.199-0.072-0.299c-0.015-0.268,0.175-0.505,0.44-0.548c7.178-1.182,10.397-8.519,10.53-8.83
	c0.004-0.009,0.008-0.018,0.012-0.025c0.439-0.891,0.525-1.664,0.257-2.297c-0.493-1.161-2.1-1.672-3.163-2.009
	c-0.26-0.082-0.507-0.16-0.701-0.237c-2.122-0.839-2.299-1.7-2.216-2.139c0.143-0.748,1.142-1.27,1.95-1.27
	c0.222,0,0.417,0.039,0.581,0.116c0.954,0.447,1.814,0.674,2.558,0.674c1.025,0,1.474-0.431,1.528-0.487
	c-0.026-0.486-0.059-0.993-0.092-1.518c-0.214-3.394-0.479-7.61,0.595-10.018c3.219-7.215,10.042-7.775,12.058-7.775
	c0.051,0,0.883-0.009,0.883-0.009l0.119-0.001c2.02,0,8.857,0.562,12.078,7.781c1.074,2.408,0.809,6.629,0.594,10.02l-0.008,0.147
	c-0.031,0.473-0.059,0.932-0.084,1.371c0.053,0.053,0.465,0.448,1.395,0.484l0,0c0.707-0.027,1.52-0.252,2.41-0.67
	c0.262-0.122,0.553-0.147,0.75-0.147c0.301,0,0.607,0.059,0.861,0.164l0.016,0.007c0.721,0.255,1.193,0.761,1.203,1.288
	c0.01,0.498-0.371,1.245-2.232,1.98c-0.193,0.076-0.439,0.154-0.701,0.237c-1.064,0.338-2.67,0.848-3.164,2.009
	c-0.268,0.633-0.182,1.405,0.258,2.296c0.004,0.009,0.008,0.017,0.012,0.026c0.133,0.312,3.35,7.646,10.531,8.829
	c0.266,0.044,0.453,0.28,0.439,0.549c-0.006,0.101-0.031,0.201-0.074,0.3c-0.295,0.693-1.631,1.676-6.303,2.397
	c-0.381,0.059-0.529,0.556-0.756,1.599c-0.084,0.379-0.168,0.752-0.283,1.145c-0.1,0.34-0.311,0.499-0.668,0.499h-0.059
	c-0.246,0-0.6-0.044-1.045-0.132c-0.791-0.154-1.678-0.297-2.805-0.297c-0.66,0-1.342,0.058-2.025,0.171
	c-1.402,0.233-2.592,1.073-3.852,1.964C36.244,51.348,34.354,52.684,31.408,52.684z"/>
</svg>
