<?xml version="1.0" encoding="utf-8"?>
<!-- Generator: Adobe Illustrator 16.0.0, SVG Export Plug-In . SVG Version: 6.00 Build 0)  -->
<!DOCTYPE svg PUBLIC "-//W3C//DTD SVG 1.1//EN" "http://www.w3.org/Graphics/SVG/1.1/DTD/svg11.dtd">
<svg version="1.1" id="Ebene_1" xmlns="http://www.w3.org/2000/svg" xmlns:xlink="http://www.w3.org/1999/xlink" x="0px" y="0px"
	 width="60.09px" height="60.09px" viewBox="0 0 60.09 60.09" enable-background="new 0 0 60.09 60.09" xml:space="preserve">
<path id="twitter" fill="#FFFFFF" d="M35.86,11.671c-3.738,1.359-6.098,4.867-5.83,8.705l0.09,1.481l-1.495-0.181
	c-5.44-0.694-10.195-3.052-14.231-7.013l-1.975-1.965l-0.508,1.451c-1.075,3.237-0.387,6.651,1.854,8.947
	c1.196,1.271,0.927,1.452-1.134,0.695c-0.72-0.242-1.347-0.422-1.406-0.333c-0.208,0.213,0.507,2.963,1.076,4.052
	c0.778,1.512,2.362,2.994,4.097,3.868l1.465,0.697l-1.734,0.027c-1.673,0-1.733,0.03-1.553,0.667
	c0.597,1.965,2.959,4.049,5.589,4.958l1.854,0.632l-1.614,0.968c-2.391,1.394-5.201,2.175-8.012,2.237
	c-1.348,0.031-2.453,0.152-2.453,0.243c0,0.302,3.648,1.994,5.77,2.658c6.368,1.963,13.933,1.119,19.612-2.235
	c4.038-2.389,8.072-7.134,9.958-11.729c1.016-2.448,2.032-6.922,2.032-9.067c0-1.391,0.089-1.572,1.766-3.234
	c0.985-0.969,1.91-2.025,2.092-2.327c0.299-0.575,0.268-0.575-1.258-0.063c-2.54,0.909-2.9,0.788-1.642-0.572
	c0.928-0.967,2.033-2.721,2.033-3.236c0-0.089-0.45,0.06-0.958,0.333c-0.537,0.303-1.735,0.755-2.631,1.028L45.1,13.877
	l-1.464-0.999c-0.81-0.543-1.944-1.149-2.542-1.33C39.566,11.127,37.236,11.188,35.86,11.671z"/>
</svg>
