<?xml version="1.0" encoding="utf-8"?>
<!-- Generator: Adobe Illustrator 16.0.0, SVG Export Plug-In . SVG Version: 6.00 Build 0)  -->
<!DOCTYPE svg PUBLIC "-//W3C//DTD SVG 1.1//EN" "http://www.w3.org/Graphics/SVG/1.1/DTD/svg11.dtd">
<svg version="1.1" id="Ebene_1" xmlns="http://www.w3.org/2000/svg" xmlns:xlink="http://www.w3.org/1999/xlink" x="0px" y="0px"
	 width="60.09px" height="60.09px" viewBox="0 0 60.09 60.09" enable-background="new 0 0 60.09 60.09" xml:space="preserve">
<g id="whatsapp">
	<path fill="#FFFFFF" d="M46.664,13.334c-4.346-4.349-10.123-6.746-16.278-6.749c-12.684,0-23.007,10.322-23.012,23.01
		c-0.001,4.056,1.058,8.015,3.072,11.503L7.181,53.023l12.199-3.2c3.361,1.833,7.145,2.801,10.996,2.803h0.01c0.001,0-0.001,0,0,0
		c12.683,0,23.007-10.324,23.011-23.012C53.4,23.465,51.009,17.683,46.664,13.334z M30.386,48.737h-0.009
		c-3.431,0-6.797-0.922-9.733-2.665l-0.699-0.414l-7.239,1.899l1.933-7.059l-0.455-0.725c-1.915-3.045-2.926-6.564-2.924-10.178
		c0.003-10.545,8.583-19.124,19.133-19.124c5.11,0.001,9.911,1.993,13.522,5.608c3.61,3.616,5.599,8.421,5.598,13.532
		C49.507,40.157,40.929,48.737,30.386,48.737z"/>
	<path fill="#FFFFFF" d="M40.877,34.415c-0.574-0.289-3.402-1.68-3.93-1.873c-0.526-0.19-0.91-0.285-1.293,0.289
		c-0.383,0.576-1.484,1.872-1.821,2.255c-0.335,0.383-0.671,0.433-1.245,0.145c-0.575-0.289-2.428-0.896-4.624-2.854
		c-1.709-1.526-2.863-3.409-3.198-3.984c-0.335-0.575-0.035-0.887,0.251-1.173c0.259-0.258,0.576-0.673,0.863-1.008
		c0.287-0.336,0.383-0.576,0.575-0.959c0.192-0.384,0.096-0.72-0.048-1.007c-0.143-0.289-1.293-3.118-1.772-4.271
		c-0.467-1.121-0.94-0.969-1.293-0.987c-0.335-0.017-0.719-0.021-1.102-0.021s-1.006,0.145-1.533,0.72s-2.012,1.967-2.012,4.796
		c0,2.831,2.06,5.564,2.348,5.949c0.288,0.383,4.054,6.19,9.822,8.681c1.372,0.594,2.442,0.946,3.278,1.212
		c1.378,0.438,2.631,0.375,3.621,0.228c1.104-0.164,3.401-1.39,3.881-2.732c0.48-1.346,0.48-2.496,0.336-2.735
		C41.836,34.845,41.452,34.703,40.877,34.415z"/>
</g>
</svg>
