<?xml version="1.0" encoding="utf-8"?>
<!-- Generator: Adobe Illustrator 16.0.0, SVG Export Plug-In . SVG Version: 6.00 Build 0)  -->
<!DOCTYPE svg PUBLIC "-//W3C//DTD SVG 1.1//EN" "http://www.w3.org/Graphics/SVG/1.1/DTD/svg11.dtd">
<svg version="1.1" id="Ebene_1" xmlns="http://www.w3.org/2000/svg" xmlns:xlink="http://www.w3.org/1999/xlink" x="0px" y="0px"
	 width="60.09px" height="60.09px" viewBox="0 0 60.09 60.09" enable-background="new 0 0 60.09 60.09" xml:space="preserve">
<g id="youtube">
	<path fill="#FFFFFF" d="M46.053,27.229H14.924c-4.948,0-8.959,4.016-8.959,8.962v7.201c0,4.947,4.011,8.961,8.959,8.961h31.128
		c4.947,0,8.959-4.014,8.959-8.961V36.19C55.012,31.244,51,27.229,46.053,27.229z M21.464,32.835h-2.894v14.38h-2.797v-14.38h-2.892
		v-2.446h8.582V32.835L21.464,32.835z M29.639,47.215H27.16v-1.36c-0.461,0.503-0.937,0.888-1.433,1.146
		c-0.496,0.27-0.975,0.396-1.44,0.396c-0.576,0-1.004-0.183-1.297-0.555c-0.288-0.371-0.436-0.921-0.436-1.664V34.801h2.48v9.523
		c0,0.294,0.055,0.505,0.153,0.636c0.107,0.135,0.277,0.197,0.511,0.197c0.18,0,0.411-0.086,0.69-0.261
		c0.281-0.176,0.537-0.396,0.771-0.668V34.8h2.479V47.215z M38.643,44.651c0,0.878-0.193,1.552-0.584,2.021
		c-0.387,0.47-0.953,0.701-1.686,0.701c-0.488,0-0.922-0.088-1.299-0.271c-0.379-0.18-0.736-0.457-1.061-0.841v0.951h-2.51V30.389
		h2.51v5.419c0.336-0.375,0.691-0.666,1.063-0.86c0.379-0.199,0.76-0.296,1.145-0.296c0.785,0,1.383,0.263,1.797,0.791
		c0.416,0.529,0.623,1.305,0.623,2.32v6.889H38.643z M47.246,41.307H42.5v2.339c0,0.652,0.08,1.106,0.242,1.359
		c0.166,0.254,0.445,0.378,0.842,0.378c0.412,0,0.697-0.107,0.863-0.321c0.16-0.216,0.246-0.686,0.246-1.416v-0.564h2.553v0.637
		c0,1.272-0.309,2.231-0.936,2.878c-0.617,0.642-1.547,0.959-2.783,0.959c-1.113,0-1.99-0.339-2.627-1.021
		c-0.635-0.679-0.959-1.619-0.959-2.815v-5.576c0-1.072,0.354-1.956,1.057-2.633c0.701-0.677,1.604-1.015,2.715-1.015
		c1.137,0,2.01,0.313,2.619,0.94c0.609,0.629,0.914,1.529,0.914,2.706V41.307z"/>
	<path fill="#FFFFFF" d="M43.607,36.665c-0.395,0-0.678,0.11-0.85,0.343c-0.176,0.218-0.258,0.591-0.258,1.112v1.255h2.193V38.12
		c0-0.521-0.088-0.896-0.262-1.112C44.264,36.776,43.984,36.665,43.607,36.665z"/>
	<path fill="#FFFFFF" d="M35.051,36.623c-0.176,0-0.354,0.039-0.525,0.12c-0.174,0.079-0.344,0.21-0.512,0.38v7.732
		c0.199,0.2,0.396,0.354,0.588,0.442c0.191,0.085,0.391,0.133,0.602,0.133c0.305,0,0.525-0.088,0.67-0.266
		c0.141-0.176,0.213-0.457,0.213-0.854v-6.411c0-0.422-0.084-0.737-0.26-0.954C35.643,36.73,35.385,36.623,35.051,36.623z"/>
	<polygon fill="#FFFFFF" points="19,22.917 22.144,22.917 22.144,15.227 25.805,4.379 22.609,4.379 20.664,11.789 20.465,11.789 
		18.422,4.379 15.255,4.379 19,15.573 	"/>
	<path fill="#FFFFFF" d="M30.065,23.262c1.271,0,2.267-0.333,2.992-0.999c0.723-0.669,1.082-1.582,1.082-2.752v-7.063
		c0-1.041-0.369-1.898-1.104-2.56c-0.74-0.659-1.688-0.991-2.844-0.991c-1.27,0-2.28,0.314-3.032,0.941
		c-0.75,0.627-1.127,1.468-1.127,2.531v7.088c0,1.163,0.366,2.083,1.1,2.772C27.865,22.917,28.844,23.262,30.065,23.262z
		 M28.908,12.265c0-0.297,0.106-0.537,0.315-0.725c0.217-0.185,0.492-0.273,0.834-0.273c0.369,0,0.668,0.089,0.896,0.273
		c0.226,0.188,0.339,0.428,0.339,0.725v7.451c0,0.365-0.111,0.655-0.335,0.864c-0.224,0.21-0.523,0.313-0.9,0.313
		c-0.369,0-0.653-0.1-0.854-0.31c-0.197-0.205-0.297-0.493-0.297-0.868L28.908,12.265L28.908,12.265z"/>
	<path fill="#FFFFFF" d="M38.355,23.117c0.525,0,1.064-0.15,1.619-0.438c0.563-0.292,1.1-0.719,1.609-1.276v1.516h2.793V9.243
		h-2.793v10.38c-0.26,0.297-0.549,0.541-0.859,0.734c-0.314,0.192-0.576,0.288-0.779,0.288c-0.264,0-0.455-0.071-0.568-0.221
		c-0.115-0.143-0.18-0.377-0.18-0.698V9.243h-2.789v11.429c0,0.815,0.164,1.424,0.486,1.828
		C37.225,22.91,37.707,23.117,38.355,23.117z"/>
</g>
</svg>
